<svg width="18" height="18" viewBox="0 0 18 18" fill="none" xmlns="http://www.w3.org/2000/svg"><path d="M14.834 3.166A8.196 8.196 0 009 .75a8.196 8.196 0 00-5.834 2.416A8.196 8.196 0 00.75 9c0 2.204.858 4.275 2.416 5.834A8.196 8.196 0 009 17.25a8.197 8.197 0 005.834-2.416A8.196 8.196 0 0017.25 9a8.196 8.196 0 00-2.416-5.834zM9 16.283c-4.016 0-7.283-3.267-7.283-7.283S4.984 1.717 9 1.717 16.283 4.984 16.283 9 13.016 16.283 9 16.283z" fill="#342834"/><path d="M9 2.821A6.186 6.186 0 002.821 9a6.186 6.186 0 006.18 6.179A6.186 6.186 0 0015.178 9 6.186 6.186 0 009 2.821zm0 11.391A5.218 5.218 0 013.788 9 5.218 5.218 0 019 3.788 5.218 5.218 0 0114.212 9 5.218 5.218 0 019 14.212z" fill="#342834"/><path d="M9 5.41a.483.483 0 00-.484.483v2.828l-1.552.896a.483.483 0 10.484.837L9.242 9.42A.483.483 0 009.483 9V5.893A.483.483 0 009 5.41z" fill="#342834"/></svg>