<svg width="18" height="11" viewBox="0 0 18 11" fill="none" xmlns="http://www.w3.org/2000/svg"><path d="M14.937 6.021c-.291-.367-.208-.53 0-.86.004-.003 2.406-3.323 2.653-4.448l.002-.001c.123-.41 0-.712-.595-.712H15.03c-.501 0-.732.259-.856.548 0 0-1.002 2.399-2.42 3.954-.457.449-.668.593-.918.593-.123 0-.314-.144-.314-.554V.71C10.52.22 10.38 0 9.966 0H6.87c-.314 0-.501.23-.501.443 0 .467.709.574.782 1.887v2.847c0 .624-.113.74-.364.74-.67 0-2.293-2.41-3.255-5.165C3.338.217 3.149 0 2.643 0H.676C.113 0 0 .26 0 .549c0 .512.669 3.055 3.111 6.415C4.74 9.258 7.031 10.5 9.116 10.5c1.253 0 1.406-.276 1.406-.75 0-2.192-.113-2.399.515-2.399.29 0 .792.144 1.962 1.25 1.337 1.312 1.557 1.9 2.305 1.9h1.968c.561 0 .846-.277.682-.821-.374-1.145-2.903-3.501-3.017-3.659z" fill="#000"/></svg>