<?xml version="1.0" encoding="utf-8"?><svg width="18" height="18" fill="none" xmlns="http://www.w3.org/2000/svg" viewBox="0 0 18 18"><path d="M13.781 0H4.22A4.224 4.224 0 000 4.219v9.562A4.224 4.224 0 004.219 18h9.562A4.224 4.224 0 0018 13.781V4.22A4.224 4.224 0 0013.781 0zm2.813 13.781a2.816 2.816 0 01-2.813 2.813H4.22a2.816 2.816 0 01-2.813-2.813V4.22A2.816 2.816 0 014.22 1.406h9.562a2.816 2.816 0 012.813 2.813v9.562zM9 5.027A3.977 3.977 0 005.027 9 3.977 3.977 0 009 12.973 3.977 3.977 0 0012.973 9 3.977 3.977 0 009 5.027zm0 6.54A2.57 2.57 0 016.434 9 2.57 2.57 0 019 6.434 2.57 2.57 0 0111.566 9 2.57 2.57 0 019 11.566zm5.531-7.22a.879.879 0 11-1.758 0 .879.879 0 011.758 0z" fill="#000"/></svg>