<?xml version="1.0" encoding="utf-8"?><svg width="16" height="18" fill="none" xmlns="http://www.w3.org/2000/svg" viewBox="0 0 16 18"><path d="M14.186 7.57h-.04v-1a5.82 5.82 0 00-11.64 0v1H2.26c-.898 0-1.592.797-1.592 1.716v2.553a1.613 1.613 0 001.592 1.654h1.511a.388.388 0 00.368-.43V8.062c0-.245-.143-.49-.368-.49h-.449V6.57a5.003 5.003 0 0110.007 0v1h-.45c-.224 0-.367.246-.367.49v5.004a.388.388 0 00.367.429h.47l-.041.06a3.226 3.226 0 01-2.593 1.287 2.022 2.022 0 00-4.003.388 2.042 2.042 0 002.042 2.022 2.103 2.103 0 001.47-.633c.262-.268.433-.61.49-.98a4.043 4.043 0 003.247-1.614l.389-.571c.878-.062 1.429-.613 1.429-1.41V9.49c0-.878-.653-1.92-1.593-1.92zM3.322 12.677H2.26a.796.796 0 01-.776-.838V9.287c0-.47.327-.899.776-.899h1.062v4.289zm6.31 3.37a1.205 1.205 0 01-.878.387 1.246 1.246 0 01-1.225-1.205 1.205 1.205 0 112.41 0c.017.304-.095.6-.307.817zm5.33-4.003c0 .551-.53.633-.776.633h-.857V8.387h.857c.45 0 .776.633.776 1.103v2.553z" fill="#342834"/></svg>