<?xml version="1.0" encoding="utf-8"?><svg viewBox="0 0 19 18" xmlns="http://www.w3.org/2000/svg" xmlns:xlink="http://www.w3.org/1999/xlink"><style>:root>svg{display:none}:root>svg:target{display:block}</style><svg fill="none" viewBox="0 0 10 6" id="arrow-down-green" xmlns="http://www.w3.org/2000/svg"><path d="M8.867 1l-4 4-4-4" stroke="#54AC84"/></svg><svg fill="none" viewBox="0 0 10 6" id="arrow-down-white" xmlns="http://www.w3.org/2000/svg"><path d="M8.867 1l-4 4-4-4" stroke="#FFF"/></svg><svg fill="none" viewBox="0 0 19 12" id="arrow-left" xmlns="http://www.w3.org/2000/svg"><path d="M19 6.244H1.17M6.244 1L1 6.244l5.244 5.244" stroke="#5B7D6E"/></svg><svg fill="none" viewBox="0 0 19 12" id="arrow-right" xmlns="http://www.w3.org/2000/svg"><path d="M0 6.244h17.83M12.756 1L18 6.244l-5.244 5.244" stroke="#5B7D6E"/></svg><svg fill="none" viewBox="0 0 18 18" id="clock" xmlns="http://www.w3.org/2000/svg"><path d="M14.834 3.166A8.196 8.196 0 009 .75a8.196 8.196 0 00-5.834 2.416A8.196 8.196 0 00.75 9c0 2.204.858 4.275 2.416 5.834A8.196 8.196 0 009 17.25a8.197 8.197 0 005.834-2.416A8.196 8.196 0 0017.25 9a8.196 8.196 0 00-2.416-5.834zM9 16.283c-4.016 0-7.283-3.267-7.283-7.283S4.984 1.717 9 1.717 16.283 4.984 16.283 9 13.016 16.283 9 16.283z" fill="#342834"/><path d="M9 2.821A6.186 6.186 0 002.821 9a6.186 6.186 0 006.18 6.179A6.186 6.186 0 0015.178 9 6.186 6.186 0 009 2.821zm0 11.391A5.218 5.218 0 013.788 9 5.218 5.218 0 019 3.788 5.218 5.218 0 0114.212 9 5.218 5.218 0 019 14.212z" fill="#342834"/><path d="M9 5.41a.483.483 0 00-.484.483v2.828l-1.552.896a.483.483 0 10.484.837L9.242 9.42A.483.483 0 009.483 9V5.893A.483.483 0 009 5.41z" fill="#342834"/></svg><svg fill="none" viewBox="0 0 18 18" id="insta" xmlns="http://www.w3.org/2000/svg"><path d="M13.781 0H4.22A4.224 4.224 0 000 4.219v9.562A4.224 4.224 0 004.219 18h9.562A4.224 4.224 0 0018 13.781V4.22A4.224 4.224 0 0013.781 0zm2.813 13.781a2.816 2.816 0 01-2.813 2.813H4.22a2.816 2.816 0 01-2.813-2.813V4.22A2.816 2.816 0 014.22 1.406h9.562a2.816 2.816 0 012.813 2.813v9.562zM9 5.027A3.977 3.977 0 005.027 9 3.977 3.977 0 009 12.973 3.977 3.977 0 0012.973 9 3.977 3.977 0 009 5.027zm0 6.54A2.57 2.57 0 016.434 9 2.57 2.57 0 019 6.434 2.57 2.57 0 0111.566 9 2.57 2.57 0 019 11.566zm5.531-7.22a.879.879 0 11-1.758 0 .879.879 0 011.758 0z" fill="#000"/></svg><svg fill="none" viewBox="0 0 18 14" id="mail" xmlns="http://www.w3.org/2000/svg"><path d="M15.8.583H2.2c-.798 0-1.45.651-1.45 1.45v9.668c0 .797.649 1.45 1.45 1.45h13.6c.796 0 1.45-.648 1.45-1.45V2.034c0-.797-.649-1.45-1.45-1.45zm-.2.967L9.03 8.12 2.406 1.55H15.6zM1.717 11.501V2.23l4.656 4.616-4.656 4.656zm.683.684l4.66-4.66 1.632 1.62a.483.483 0 00.682-.002l1.592-1.592 4.634 4.634H2.4zm13.883-.684L11.65 6.868l4.634-4.634V11.5z" fill="#342834"/></svg><svg fill="none" viewBox="0 0 16 18" id="tel" xmlns="http://www.w3.org/2000/svg"><path d="M14.186 7.57h-.04v-1a5.82 5.82 0 00-11.64 0v1H2.26c-.898 0-1.592.797-1.592 1.716v2.553a1.613 1.613 0 001.592 1.654h1.511a.388.388 0 00.368-.43V8.062c0-.245-.143-.49-.368-.49h-.449V6.57a5.003 5.003 0 0110.007 0v1h-.45c-.224 0-.367.246-.367.49v5.004a.388.388 0 00.367.429h.47l-.041.06a3.226 3.226 0 01-2.593 1.287 2.022 2.022 0 00-4.003.388 2.042 2.042 0 002.042 2.022 2.103 2.103 0 001.47-.633c.262-.268.433-.61.49-.98a4.043 4.043 0 003.247-1.614l.389-.571c.878-.062 1.429-.613 1.429-1.41V9.49c0-.878-.653-1.92-1.593-1.92zM3.322 12.677H2.26a.796.796 0 01-.776-.838V9.287c0-.47.327-.899.776-.899h1.062v4.289zm6.31 3.37a1.205 1.205 0 01-.878.387 1.246 1.246 0 01-1.225-1.205 1.205 1.205 0 112.41 0c.017.304-.095.6-.307.817zm5.33-4.003c0 .551-.53.633-.776.633h-.857V8.387h.857c.45 0 .776.633.776 1.103v2.553z" fill="#342834"/></svg><svg fill="none" viewBox="0 0 18 11" id="vk" xmlns="http://www.w3.org/2000/svg"><path d="M14.937 6.021c-.291-.367-.208-.53 0-.86.004-.003 2.406-3.323 2.653-4.448l.002-.001c.123-.41 0-.712-.595-.712H15.03c-.501 0-.732.259-.856.548 0 0-1.002 2.399-2.42 3.954-.457.449-.668.593-.918.593-.123 0-.314-.144-.314-.554V.71C10.52.22 10.38 0 9.966 0H6.87c-.314 0-.501.23-.501.443 0 .467.709.574.782 1.887v2.847c0 .624-.113.74-.364.74-.67 0-2.293-2.41-3.255-5.165C3.338.217 3.149 0 2.643 0H.676C.113 0 0 .26 0 .549c0 .512.669 3.055 3.111 6.415C4.74 9.258 7.031 10.5 9.116 10.5c1.253 0 1.406-.276 1.406-.75 0-2.192-.113-2.399.515-2.399.29 0 .792.144 1.962 1.25 1.337 1.312 1.557 1.9 2.305 1.9h1.968c.561 0 .846-.277.682-.821-.374-1.145-2.903-3.501-3.017-3.659z" fill="#000"/></svg></svg>